<svg width="25" height="25" viewBox="0 0 25 25" fill="none" xmlns="http://www.w3.org/2000/svg">
<path d="M17.9688 0.9375C19.1407 -0.234375 21.0625 -0.234375 22.2344 0.9375L24.0625 2.76562C25.2344 3.9375 25.2344 5.85938 24.0625 7.03125L21.8125 9.28125L15.7188 3.1875L17.9688 0.9375ZM20.7344 10.3594L9.81253 21.2812C9.34378 21.75 8.73441 22.125 8.07816 22.3125L2.40628 23.9531C2.03128 24.0938 1.60941 24 1.32816 23.6719C1.00003 23.3906 0.906282 22.9688 1.00003 22.5938L2.68753 16.9219C2.87503 16.2656 3.25003 15.6562 3.71878 15.1875L14.6407 4.26562L20.7344 10.3594Z" fill="#04111D"/>
</svg>
