<svg width="24" height="22" viewBox="0 0 24 22" fill="none" xmlns="http://www.w3.org/2000/svg">
<path d="M23.9953 13.8V15.0558C23.9953 15.1256 23.9535 15.1907 23.8884 15.2186C23.4977 15.386 22.1535 16.0047 21.5953 16.7767C20.1721 18.7581 19.0837 21.5907 16.6512 21.5907H6.50698C2.91163 21.5907 0 18.6698 0 15.0605V14.9442C0 14.8465 0.0790698 14.7721 0.172093 14.7721H5.82791C5.93953 14.7721 6.02326 14.8744 6.01395 14.986C5.97209 15.3535 6.04186 15.7302 6.21395 16.0698C6.54884 16.7535 7.24651 17.1767 7.99535 17.1767H10.7953V14.9907H8.02791C7.88372 14.9907 7.8 14.8279 7.88372 14.7116C7.91163 14.6651 7.94884 14.6186 7.9814 14.5628C8.24186 14.1907 8.6186 13.614 8.9907 12.9535C9.24651 12.5116 9.48837 12.0372 9.68837 11.5581C9.73023 11.4744 9.75814 11.386 9.7907 11.2977C9.84651 11.1442 9.90233 11.0047 9.93954 10.8605C9.9814 10.7395 10.0093 10.614 10.0419 10.4977C10.1349 10.093 10.1767 9.66512 10.1767 9.22326C10.1767 9.05116 10.1674 8.86512 10.1535 8.69302C10.1442 8.50233 10.1209 8.31163 10.0977 8.12093C10.0837 7.95349 10.0512 7.78605 10.0186 7.61395C9.97674 7.35814 9.92093 7.10698 9.86047 6.85581L9.83721 6.75814C9.7907 6.58605 9.74884 6.41861 9.69302 6.24651C9.53488 5.70233 9.35349 5.16744 9.16279 4.66977C9.09302 4.46977 9.01395 4.28372 8.93488 4.09302C8.8186 3.8093 8.69767 3.54884 8.58605 3.30233C8.53023 3.1907 8.48372 3.08837 8.43256 2.98605C8.37674 2.86977 8.32093 2.74884 8.26512 2.63721C8.22326 2.55349 8.1814 2.46977 8.14884 2.3907L7.80465 1.75814C7.75814 1.67442 7.83721 1.57209 7.93023 1.59535L10.0698 2.17674H10.0744C10.0744 2.17674 10.0791 2.17674 10.0837 2.17674L10.3674 2.25581L10.6791 2.34419L10.7953 2.37674V1.11163C10.7953 0.497674 11.2884 0 11.893 0C12.1953 0 12.4744 0.125581 12.6698 0.325581C12.8698 0.525581 12.9907 0.804651 12.9907 1.11163V3L13.2186 3.06512C13.2186 3.06512 13.2558 3.07907 13.2698 3.09302C13.3256 3.13488 13.4047 3.19535 13.507 3.27442C13.586 3.33954 13.6744 3.4186 13.7767 3.49767C13.9814 3.66512 14.2279 3.87907 14.4977 4.12558C14.5674 4.18605 14.6419 4.25116 14.7023 4.31628C15.0512 4.64186 15.4419 5.01861 15.814 5.44186C15.9163 5.55814 16.0186 5.67907 16.1256 5.80465C16.2279 5.93488 16.3395 6.06047 16.4372 6.18605C16.5628 6.35349 16.6977 6.53023 16.8186 6.71163C16.8744 6.79535 16.9395 6.88372 16.9907 6.97209C17.1442 7.2 17.2744 7.44186 17.4047 7.67907C17.4605 7.7907 17.5163 7.90698 17.5628 8.02791C17.707 8.34419 17.8186 8.66977 17.8884 8.99535C17.9116 9.06512 17.9256 9.13954 17.9349 9.2093V9.22326C17.9581 9.32093 17.9674 9.42326 17.9767 9.52558C18.0093 9.85581 17.9907 10.1907 17.9209 10.5256C17.893 10.6698 17.8512 10.8 17.8047 10.9442C17.7581 11.0791 17.707 11.2233 17.6465 11.3581C17.5256 11.6372 17.386 11.9163 17.2186 12.1721C17.1628 12.2698 17.1023 12.3721 17.0372 12.4651C16.9674 12.5674 16.893 12.6651 16.8326 12.7581C16.7442 12.8791 16.6512 13.0047 16.5535 13.1163C16.4698 13.2326 16.3814 13.3535 16.2837 13.4558C16.1488 13.614 16.0233 13.7628 15.8884 13.907C15.8093 14 15.7209 14.0977 15.6326 14.1814C15.5488 14.2791 15.4605 14.3628 15.3767 14.4419C15.2419 14.5767 15.1302 14.6791 15.0372 14.7674L14.8186 14.9674C14.786 14.9954 14.7442 15.0093 14.7023 15.0093H13V17.1954H15.1442C15.6233 17.1954 16.0791 17.0233 16.4465 16.7116C16.5721 16.6 17.1209 16.1256 17.7721 15.4093C17.7953 15.386 17.8233 15.3674 17.8558 15.3581L23.7767 13.6465C23.8884 13.614 24 13.6977 24 13.814L23.9953 13.8Z" fill="#04111D"/>
<path d="M1.42793 12.3302L1.51165 12.2L6.57211 4.27907C6.64653 4.16279 6.81862 4.17674 6.87444 4.30232C7.72095 6.2 8.45118 8.55349 8.10699 10.0233C7.96281 10.6279 7.56281 11.4465 7.11165 12.2C7.05583 12.3116 6.99072 12.4186 6.92095 12.5209C6.88839 12.5674 6.83723 12.5953 6.77676 12.5953H1.57676C1.43723 12.5953 1.35351 12.4419 1.42793 12.3302V12.3302Z" fill="#04111D"/>
</svg>
