<svg width="24" height="24" viewBox="0 0 24 24" fill="none" xmlns="http://www.w3.org/2000/svg">
<path d="M13.375 3.29344L21.625 11.1684C21.8594 11.4028 22 11.6841 22 12.0122C22 12.2934 21.8594 12.5747 21.625 12.8091L13.375 20.6841C12.9531 21.1059 12.2031 21.1059 11.7812 20.6372C11.3594 20.2153 11.3594 19.4653 11.8281 19.0434L18.0625 13.1372H2.125C1.46875 13.1372 1 12.6216 1 12.0122C1 11.3559 1.46875 10.8872 2.125 10.8872H18.0625L11.8281 4.93407C11.3594 4.51219 11.3594 3.76219 11.7812 3.34032C12.2031 2.87157 12.9062 2.87157 13.375 3.29344Z" fill="#04111D"/>
</svg>
