<svg width="24" height="24" viewBox="0 0 24 24" fill="none" xmlns="http://www.w3.org/2000/svg">
<path d="M22.0312 19.9688C22.6406 20.5312 22.6406 21.5156 22.0312 22.0781C21.4688 22.6875 20.4844 22.6875 19.9219 22.0781L19.3125 21.5156C17.2969 23.0625 14.7656 24 11.9531 24C9.1875 24 6.65625 23.0625 4.64062 21.5156L4.03125 22.0781C3.46875 22.6875 2.48438 22.6875 1.92188 22.0781C1.3125 21.5156 1.3125 20.5312 1.92188 19.9688L2.48438 19.3594C0.9375 17.3438 0 14.8125 0 12C0 9.23438 0.9375 6.70312 2.48438 4.6875L1.92188 4.07812C1.3125 3.51562 1.3125 2.53125 1.92188 1.96875C2.48438 1.35938 3.46875 1.35938 4.03125 1.96875L4.64062 2.53125C6.65625 0.984375 9.1875 0 11.9531 0C14.7656 0 17.2969 0.984375 19.3125 2.53125L19.9219 1.96875C20.4844 1.35938 21.4688 1.35938 22.0312 1.96875C22.6406 2.53125 22.6406 3.51562 22.0312 4.07812L21.4688 4.6875C23.0156 6.70312 24 9.23438 24 12C24 14.8125 23.0156 17.3438 21.4688 19.3594L22.0312 19.9688ZM14.4844 16.6406C13.7344 17.0625 12.8906 17.25 11.9531 17.25C11.0625 17.25 10.2188 17.0625 9.46875 16.6406L6.75 19.3594C8.25 20.3906 10.0312 21 11.9531 21C13.9219 21 15.7031 20.3906 17.2031 19.3594L14.4844 16.6406ZM21 12C21 10.0781 20.3438 8.29688 19.3125 6.79688L16.5938 9.51562C17.0156 10.2656 17.25 11.1094 17.25 12C17.25 12.9375 17.0156 13.7812 16.5938 14.5312L19.3125 17.25C20.3438 15.75 21 13.9688 21 12ZM11.9531 3C10.0312 3 8.25 3.65625 6.75 4.6875L9.46875 7.40625C10.2188 6.98438 11.0625 6.75 11.9531 6.75C12.8906 6.75 13.7344 6.98438 14.4844 7.40625L17.2031 4.6875C15.7031 3.65625 13.9219 3 12 3H11.9531ZM7.35938 14.5312C6.9375 13.7812 6.70312 12.9375 6.70312 12C6.70312 11.1094 6.9375 10.2656 7.35938 9.51562L4.64062 6.79688C3.60938 8.29688 2.95312 10.0781 2.95312 12C2.95312 13.9688 3.60938 15.75 4.64062 17.25L7.35938 14.5312ZM11.9531 9.75C10.7344 9.75 9.70312 10.7812 9.70312 12C9.70312 13.2656 10.7344 14.25 11.9531 14.25C13.2188 14.25 14.25 13.2656 14.25 12C14.25 10.7812 13.2188 9.75 11.9531 9.75Z" fill="#04111D"/>
</svg>
