<svg xmlns="http://www.w3.org/2000/svg" width="37" height="33" fill="none" viewBox="0 0 37 33"><path fill="#2BCDE4" d="M9.4998 0L13.3998 2.8C12.6665 3.73333 11.8331 5.06667 10.8998 6.8C10.0331 8.53334 9.26647 10.4667 8.5998 12.6C7.93314 14.6667 7.63314 16.6667 7.69981 18.6C8.16647 18.4667 8.53314 18.4 8.79981 18.4C9.13314 18.3333 9.46647 18.3 9.7998 18.3C11.5998 18.3 13.1998 18.8333 14.5998 19.9C15.9998 20.9667 16.6998 22.6333 16.6998 24.9C16.6998 26.9 16.0331 28.6667 14.6998 30.2C13.4331 31.6667 11.6998 32.4 9.4998 32.4C6.43314 32.4667 4.13314 31.5 2.59981 29.5C1.06647 27.4333 0.299805 24.9 0.299805 21.9C0.299805 18.7 1.03314 15.2333 2.49981 11.5C4.03314 7.7 6.36647 3.86667 9.4998 0ZM29.4998 0L33.3998 2.8C32.6665 3.73333 31.8331 5.06667 30.8998 6.8C30.0331 8.53334 29.2665 10.4667 28.5998 12.6C27.9331 14.6667 27.6331 16.6667 27.6998 18.6C28.1665 18.4667 28.5331 18.4 28.7998 18.4C29.1331 18.3333 29.4665 18.3 29.7998 18.3C31.5998 18.3 33.1998 18.8333 34.5998 19.9C35.9998 20.9667 36.6998 22.6333 36.6998 24.9C36.6998 26.9 36.0331 28.6667 34.6998 30.2C33.4331 31.6667 31.6998 32.4 29.4998 32.4C26.4331 32.4667 24.1331 31.5 22.5998 29.5C21.0665 27.4333 20.2998 24.9 20.2998 21.9C20.2998 18.7 21.0331 15.2333 22.4998 11.5C24.0331 7.7 26.3665 3.86667 29.4998 0Z"/></svg>