<svg width="598" height="457" viewBox="0 0 598 457" fill="none" xmlns="http://www.w3.org/2000/svg">
<path d="M75.9138 122.895C75.4603 122.759 74.9729 123.051 74.8251 123.545C74.6774 124.04 74.9253 124.551 75.3788 124.686C75.8323 124.822 76.3197 124.531 76.4675 124.036C76.6152 123.541 76.3673 123.03 75.9138 122.895Z" fill="#2BCDE4"/>
<path d="M122.081 68.2192C121.587 68.0714 121.066 68.3527 120.918 68.8475C120.77 69.3422 121.052 69.8631 121.546 70.0108C122.041 70.1586 122.562 69.8772 122.71 69.3825C122.857 68.8877 122.576 68.3669 122.081 68.2192Z" fill="#2BCDE4"/>
<path fill-rule="evenodd" clip-rule="evenodd" d="M122.378 70.2655C123.119 69.8957 123.421 68.995 123.051 68.2537L122.991 68.1336C122.618 67.3935 121.717 67.0953 120.977 67.4676C120.236 67.8398 119.938 68.7415 120.311 69.4816L120.366 69.5929C120.736 70.3342 121.637 70.6353 122.378 70.2655ZM116.842 61.3981C117.459 60.8453 117.511 59.897 116.958 59.28C116.898 59.2133 116.838 59.1467 116.778 59.0804C116.221 58.4671 115.272 58.4213 114.659 58.9782C114.046 59.5351 114 60.4837 114.557 61.0971C114.613 61.1585 114.668 61.2201 114.724 61.2818C115.276 61.8988 116.225 61.9509 116.842 61.3981ZM109.043 54.2465C109.487 53.5473 109.281 52.6203 108.581 52.1761C108.506 52.128 108.43 52.0802 108.354 52.0326C107.652 51.593 106.726 51.8059 106.287 52.5081C105.847 53.2103 106.06 54.1358 106.762 54.5754C106.832 54.6194 106.903 54.6637 106.972 54.7081C107.672 55.1524 108.599 54.9458 109.043 54.2465ZM99.5976 49.4764C99.8372 48.6834 99.3886 47.8462 98.5956 47.6066L98.4667 47.5679L98.3422 47.5309C97.5476 47.2964 96.7134 47.7503 96.4789 48.5449C96.2444 49.3394 96.6983 50.1736 97.4929 50.4082L97.6083 50.4424L97.7278 50.4783C98.5208 50.718 99.3579 50.2694 99.5976 49.4764ZM77.1378 124.236C77.3749 123.442 76.9235 122.606 76.1297 122.369L76.0144 122.334C75.2214 122.095 74.3843 122.544 74.1448 123.337C73.9052 124.13 74.3539 124.967 75.147 125.206L75.2713 125.244C76.0651 125.481 76.9008 125.029 77.1378 124.236ZM67.7948 120.498C68.2272 119.791 68.0049 118.868 67.2983 118.436C67.2301 118.394 67.162 118.352 67.0942 118.31C66.3904 117.873 65.4656 118.089 65.0286 118.793C64.5917 119.497 64.808 120.422 65.5119 120.859C65.5852 120.904 65.6588 120.949 65.7325 120.995C66.4391 121.427 67.3625 121.205 67.7948 120.498ZM89.6122 47.4368C89.6381 46.6088 88.9878 45.9166 88.1598 45.8907C88.0734 45.888 87.9871 45.8856 87.9008 45.8834C87.0726 45.8629 86.3846 46.5176 86.3641 47.3458C86.3435 48.1739 86.9982 48.862 87.8264 48.8825C87.9063 48.8845 87.9861 48.8867 88.066 48.8892C88.894 48.9151 89.5863 48.2649 89.6122 47.4368ZM59.641 114.395C60.2428 113.826 60.2692 112.876 59.6999 112.274C59.6451 112.216 59.5905 112.158 59.536 112.1C58.9706 111.494 58.0214 111.462 57.416 112.027C56.8105 112.593 56.778 113.542 57.3435 114.148C57.4023 114.21 57.4613 114.273 57.5205 114.336C58.0898 114.938 59.0392 114.964 59.641 114.395ZM79.4469 48.0696C79.2558 47.2635 78.4474 46.765 77.6413 46.9561C77.5574 46.976 77.4736 46.9961 77.3899 47.0166C76.5851 47.2128 76.0918 48.0244 76.288 48.8292C76.4843 49.6341 77.2959 50.1274 78.1007 49.9311C78.1782 49.9122 78.2558 49.8936 78.3334 49.8752C79.1395 49.6841 79.638 48.8757 79.4469 48.0696ZM53.3547 106.381C54.0831 105.987 54.3537 105.076 53.9591 104.348C53.9211 104.278 53.8833 104.208 53.8458 104.137C53.4558 103.406 52.5471 103.13 51.8162 103.52C51.0853 103.91 50.809 104.818 51.1989 105.549C51.2395 105.625 51.2803 105.701 51.3213 105.777C51.7159 106.505 52.6263 106.776 53.3547 106.381ZM69.7958 51.3239C69.4031 50.5945 68.4934 50.3216 67.764 50.7143C67.7407 50.7269 67.7174 50.7394 67.6942 50.752C67.6416 50.7804 67.5892 50.8089 67.5368 50.8376C66.8099 51.235 66.5428 52.1464 66.9402 52.8733C67.3376 53.6002 68.249 53.8673 68.9759 53.4699C69.0459 53.4316 69.116 53.3936 69.1863 53.3557C69.9157 52.963 70.1886 52.0533 69.7958 51.3239ZM49.3456 97.0185C50.1511 96.8249 50.6471 96.015 50.4535 95.2095C50.4348 95.1319 50.4165 95.0543 50.3983 94.9766C50.2098 94.1699 49.4031 93.6687 48.5964 93.8571C47.7897 94.0456 47.2885 94.8523 47.477 95.659C47.4966 95.7429 47.5164 95.8268 47.5366 95.9106C47.7302 96.716 48.5401 97.2121 49.3456 97.0185ZM61.3091 56.9553C60.7417 56.3517 59.7924 56.3224 59.1888 56.8898C59.1261 56.9488 59.0635 57.0081 59.0011 57.0675C58.4011 57.6388 58.3779 58.5882 58.9492 59.1882C59.5204 59.7881 60.4699 59.8114 61.0698 59.2401C61.1276 59.1851 61.1856 59.1302 61.2437 59.0756C61.8473 58.5081 61.8766 57.5589 61.3091 56.9553ZM47.8913 86.9379C48.7194 86.9601 49.4087 86.3067 49.4309 85.4786C49.433 85.3987 49.4354 85.3188 49.438 85.2389C49.4655 84.4109 48.8166 83.7174 47.9886 83.69C47.1606 83.6625 46.4672 84.3114 46.4397 85.1394C46.4368 85.2258 46.4342 85.3121 46.4319 85.3984C46.4098 86.2265 47.0632 86.9158 47.8913 86.9379ZM54.5655 64.5878C53.8608 64.1522 52.9364 64.3703 52.5008 65.075C52.4555 65.1484 52.4103 65.222 52.3653 65.2958C51.9343 66.0033 52.1584 66.9262 52.8658 67.3573C53.5733 67.7883 54.4962 67.5642 54.9273 66.8568C54.9689 66.7885 55.0107 66.7203 55.0527 66.6524C55.4883 65.9477 55.2701 65.0233 54.5655 64.5878ZM49.1034 76.8244C49.8979 77.0589 50.7322 76.605 50.9667 75.8104L51.001 75.6949L51.0357 75.5796C51.2752 74.7865 50.8265 73.9495 50.0334 73.71C49.2404 73.4704 48.4033 73.9192 48.1638 74.7122L48.1264 74.8366L48.0895 74.961C47.8549 75.7556 48.3089 76.5898 49.1034 76.8244Z" fill="#2BCDE4"/>
<path fill-rule="evenodd" clip-rule="evenodd" d="M99 416C121.091 416 139 398.091 139 376C139 353.909 121.091 336 99 336C76.9086 336 59 353.909 59 376C59 398.091 76.9086 416 99 416ZM99 419C122.748 419 142 399.748 142 376C142 352.252 122.748 333 99 333C75.2518 333 56 352.252 56 376C56 399.748 75.2518 419 99 419Z" fill="#2BCDE4"/>
<path fill-rule="evenodd" clip-rule="evenodd" d="M579.5 108C587.508 108 594 101.508 594 93.5C594 85.4919 587.508 79 579.5 79C571.492 79 565 85.4919 565 93.5C565 101.508 571.492 108 579.5 108ZM579.5 112C589.717 112 598 103.717 598 93.5C598 83.2827 589.717 75 579.5 75C569.283 75 561 83.2827 561 93.5C561 103.717 569.283 112 579.5 112Z" fill="#1868B7"/>
<path d="M521 0C496.147 0 476 20.1472 476 45H566C566 20.1472 545.853 0 521 0Z" fill="#2BCDE4"/>
<path d="M28 457C43.464 457 56 444.464 56 429L-2.44784e-06 429C-1.09593e-06 444.464 12.536 457 28 457Z" fill="#1868B7"/>
<path d="M101 105C101 93.9543 109.954 85 121 85H468C479.046 85 488 93.9543 488 105V359C488 370.046 479.046 379 468 379H121C109.954 379 101 370.046 101 359V105Z" fill="white"/>
<path fill-rule="evenodd" clip-rule="evenodd" d="M468 86H121C110.507 86 102 94.5066 102 105V359C102 369.493 110.507 378 121 378H468C478.493 378 487 369.493 487 359V105C487 94.5066 478.493 86 468 86ZM121 85C109.954 85 101 93.9543 101 105V359C101 370.046 109.954 379 121 379H468C479.046 379 488 370.046 488 359V105C488 93.9543 479.046 85 468 85H121Z" fill="#E5E8EB"/>
<path d="M128 125C128 119.477 132.477 115 138 115H451C456.523 115 461 119.477 461 125V339C461 344.523 456.523 349 451 349H138C132.477 349 128 344.523 128 339V125Z" fill="#F3FBFE"/>
<g filter="url(#filter0_d)">
<path d="M54 220C54 214.477 58.4772 210 64 210H144C149.523 210 154 214.477 154 220V300C154 305.523 149.523 310 144 310H64C58.4772 310 54 305.523 54 300V220Z" fill="white"/>
</g>
<g filter="url(#filter1_d)">
<path d="M182 220C182 214.477 186.477 210 192 210H272C277.523 210 282 214.477 282 220V300C282 305.523 277.523 310 272 310H192C186.477 310 182 305.523 182 300V220Z" fill="white"/>
</g>
<g filter="url(#filter2_d)">
<path d="M310 220C310 214.477 314.477 210 320 210H400C405.523 210 410 214.477 410 220V300C410 305.523 405.523 310 400 310H320C314.477 310 310 305.523 310 300V220Z" fill="white"/>
</g>
<g filter="url(#filter3_d)">
<path d="M438 220C438 214.477 442.477 210 448 210H528C533.523 210 538 214.477 538 220V300C538 305.523 533.523 310 528 310H448C442.477 310 438 305.523 438 300V220Z" fill="white"/>
</g>
<path d="M488.048 240.687H494.152V262.052H488.048V240.687Z" fill="#1868B7"/>
<path d="M494.153 262.052C494.153 266.266 490.737 269.683 486.523 269.683C482.308 269.683 478.892 266.266 478.892 262.052C478.892 257.838 482.308 254.422 486.523 254.422C490.737 254.422 494.153 257.838 494.153 262.052Z" fill="#2BCDE4"/>
<path d="M465.157 243.739H471.261V265.104H465.157V243.739Z" fill="#1868B7"/>
<path d="M465.157 238.468C465.157 237.109 466.145 235.953 467.487 235.741L490.961 232.034C492.637 231.77 494.152 233.065 494.152 234.761V243.739L465.157 248.317V238.468Z" fill="#2BCDE4"/>
<path d="M471.261 265.105C471.261 269.319 467.845 272.735 463.63 272.735C459.416 272.735 456 269.319 456 265.105C456 260.89 459.416 257.474 463.63 257.474C467.845 257.474 471.261 260.89 471.261 265.105Z" fill="#2BCDE4"/>
<path d="M501.783 262.052H507.888V283.417H501.783V262.052Z" fill="#1868B7"/>
<path d="M501.783 255.981C501.783 255.081 502.434 254.313 503.321 254.166L516.882 251.905C518.564 251.625 520.096 252.923 520.096 254.629V261.24C520.096 262.589 519.12 263.741 517.789 263.963L501.783 266.63V255.981Z" fill="#2BCDE4"/>
<path d="M507.887 283.417C507.887 287.631 504.471 291.047 500.257 291.047C496.043 291.047 492.626 287.631 492.626 283.417C492.626 279.202 496.043 275.786 500.257 275.786C504.471 275.786 507.887 279.202 507.887 283.417Z" fill="#2BCDE4"/>
<path d="M384.839 258.595C384.839 272.179 373.827 283.19 360.243 283.19C346.66 283.19 335.648 272.179 335.648 258.595C335.648 245.012 346.66 234 360.243 234C373.827 234 384.839 245.012 384.839 258.595Z" fill="#2BCDE4"/>
<path d="M384.839 258.595C384.839 272.179 373.827 283.19 360.243 283.19C346.66 283.19 335.648 272.179 335.648 258.595C335.648 245.012 346.66 234 360.243 234C373.827 234 384.839 245.012 384.839 258.595Z" fill="url(#paint0_linear)"/>
<path d="M384.839 258.595C384.839 272.179 373.827 283.19 360.243 283.19C346.66 283.19 335.648 272.179 335.648 258.595C335.648 245.012 346.66 234 360.243 234C373.827 234 384.839 245.012 384.839 258.595Z" fill="#2BCDE4"/>
<path d="M384.839 258.595C384.839 272.179 373.827 283.19 360.243 283.19C346.66 283.19 335.648 272.179 335.648 258.595C335.648 245.012 346.66 234 360.243 234C373.827 234 384.839 245.012 384.839 258.595Z" fill="url(#paint1_linear)"/>
<path d="M384.839 258.595C384.839 272.179 373.827 283.19 360.243 283.19C346.66 283.19 335.648 272.179 335.648 258.595C335.648 245.012 346.66 234 360.243 234C373.827 234 384.839 245.012 384.839 258.595Z" fill="#2BCDE4"/>
<path d="M358.952 249.819C359.802 249.226 360.932 249.226 361.782 249.819L365.133 252.159L368.393 254.622C369.22 255.247 369.57 256.322 369.268 257.314L368.078 261.224L366.743 265.086C366.404 266.066 365.489 266.73 364.453 266.75L360.367 266.826L356.281 266.75C355.244 266.73 354.33 266.066 353.991 265.086L352.656 261.224L351.466 257.314C351.164 256.322 351.513 255.247 352.341 254.622L355.601 252.159L358.952 249.819Z" fill="#1868B7"/>
<path fill-rule="evenodd" clip-rule="evenodd" d="M358.952 243.723C359.802 244.317 360.932 244.317 361.782 243.723L365.133 241.383L368.393 238.92C369.22 238.295 369.57 237.22 369.268 236.228L369.088 235.638C366.344 234.58 363.361 234 360.243 234C357.231 234 354.345 234.542 351.678 235.533L351.466 236.228C351.164 237.22 351.513 238.295 352.341 238.92L355.601 241.383L358.952 243.723Z" fill="#1868B7"/>
<path fill-rule="evenodd" clip-rule="evenodd" d="M374.087 253.117C373.763 254.102 374.088 255.185 374.902 255.828L378.107 258.363L381.404 260.776C382.241 261.389 383.371 261.414 384.234 260.839L384.747 260.498C384.971 257.564 384.668 254.541 383.77 251.555C382.903 248.671 381.554 246.063 379.837 243.793L379.11 243.791C378.073 243.787 377.144 244.431 376.784 245.404L375.363 249.235L374.087 253.117Z" fill="#1868B7"/>
<path fill-rule="evenodd" clip-rule="evenodd" d="M346.312 253.117C346.636 254.102 346.31 255.185 345.497 255.828L342.292 258.363L338.994 260.776C338.158 261.389 337.028 261.414 336.164 260.839L335.652 260.498C335.428 257.564 335.731 254.541 336.629 251.555C337.496 248.671 338.845 246.063 340.562 243.793L341.289 243.791C342.326 243.787 343.255 244.431 343.615 245.404L345.036 249.235L346.312 253.117Z" fill="#1868B7"/>
<path fill-rule="evenodd" clip-rule="evenodd" d="M350.729 270.06C351.766 270.06 352.692 270.707 353.049 271.681L354.456 275.518L355.717 279.405C356.038 280.391 355.708 281.472 354.893 282.112L354.408 282.493C351.552 281.788 348.775 280.556 346.219 278.77C343.75 277.044 341.694 274.948 340.075 272.607L340.3 271.916C340.621 270.93 341.523 270.249 342.559 270.211L346.642 270.059L350.729 270.06Z" fill="#1868B7"/>
<path fill-rule="evenodd" clip-rule="evenodd" d="M369.75 270.024C368.713 270.024 367.786 270.672 367.43 271.645L366.023 275.482L364.761 279.369C364.441 280.355 364.771 281.437 365.586 282.077L366.071 282.457C368.927 281.753 371.704 280.52 374.26 278.734C376.729 277.009 378.785 274.912 380.404 272.572L380.179 271.881C379.858 270.895 378.956 270.213 377.92 270.175L373.836 270.023L369.75 270.024Z" fill="#1868B7"/>
<path d="M204 239.529C204 237.58 205.58 236 207.529 236H260.471C262.42 236 264 237.58 264 239.529V281.882C264 283.832 262.42 285.412 260.471 285.412H207.529C205.58 285.412 204 283.832 204 281.882V239.529Z" fill="#2BCDE4"/>
<path d="M243.859 257.431C244.993 258.118 244.993 259.764 243.859 260.451L226.679 270.849C225.503 271.561 224 270.714 224 269.339L224 248.542C224 247.168 225.503 246.321 226.679 247.033L243.859 257.431Z" fill="#1868B7"/>
<path d="M91.4517 243.871C91.4517 242.534 92.5348 241.451 93.871 241.451H119.677C121.014 241.451 122.097 242.534 122.097 243.871V282.58C122.097 283.916 121.014 285 119.677 285H93.871C92.5348 285 91.4517 283.916 91.4517 282.58V243.871Z" fill="#1868B7"/>
<path d="M85 237.419C85 236.083 86.0832 235 87.4194 235H113.226C114.562 235 115.645 236.083 115.645 237.419V276.129C115.645 277.465 114.562 278.548 113.226 278.548H87.4194C86.0832 278.548 85 277.465 85 276.129V237.419Z" fill="#2BCDE4"/>
<path d="M89.0322 240.645C89.0322 239.754 89.7543 239.032 90.6451 239.032H110C110.891 239.032 111.613 239.754 111.613 240.645V261.613C111.613 262.504 110.891 263.226 110 263.226H90.6451C89.7543 263.226 89.0322 262.504 89.0322 261.613V240.645Z" fill="#1868B7"/>
<path d="M89.0322 270.081C89.0322 268.522 90.2959 267.258 91.8548 267.258H99.9193C101.478 267.258 102.742 268.522 102.742 270.081C102.742 271.64 101.478 272.903 99.9193 272.903H91.8548C90.2959 272.903 89.0322 271.64 89.0322 270.081Z" fill="#1868B7"/>
<path d="M103.607 80.9871C105.137 77.2133 108.803 74.7441 112.875 74.7441H148.332V149.085H76L103.607 80.9871Z" fill="#2BCDE4"/>
<path d="M76 149.085H148.332V150.09C148.332 170.063 132.14 186.255 112.166 186.255V186.255C92.192 186.255 76 170.063 76 150.09V149.085Z" fill="#19AEC3"/>
<path d="M148.332 74.7441H221.668V149.085H148.332V74.7441Z" fill="#1868B7"/>
<path d="M148.332 149.085H221.668V149.587C221.668 169.839 205.251 186.255 185 186.255V186.255C164.749 186.255 148.332 169.839 148.332 149.587V149.085Z" fill="#124E8A"/>
<path d="M220.664 74.7441H292.995V149.085H220.664V74.7441Z" fill="#2BCDE4"/>
<path d="M220.664 149.085H292.995V150.09C292.995 170.063 276.803 186.255 256.829 186.255V186.255C236.856 186.255 220.664 170.063 220.664 150.09V149.085Z" fill="#19AEC3"/>
<path d="M292.995 74.7441H366.332V149.085H292.995V74.7441Z" fill="#1868B7"/>
<path d="M292.995 149.085H366.332V149.587C366.332 169.839 349.915 186.255 329.664 186.255V186.255C309.412 186.255 292.995 169.839 292.995 149.587V149.085Z" fill="#124E8A"/>
<path d="M366.332 74.7441H439.668V149.085H366.332V74.7441Z" fill="#2BCDE4"/>
<path d="M366.332 149.085H439.668V149.587C439.668 169.839 423.251 186.255 403 186.255V186.255C382.749 186.255 366.332 169.839 366.332 149.587V149.085Z" fill="#19AEC3"/>
<path d="M439.668 74.7441H475.125C479.197 74.7441 482.863 77.2133 484.393 80.9871L512 149.085H439.668V74.7441Z" fill="#1868B7"/>
<path d="M439.668 149.085H512V150.09C512 170.063 495.808 186.255 475.834 186.255V186.255C455.86 186.255 439.668 170.063 439.668 150.09V149.085Z" fill="#124E8A"/>
<defs>
<filter id="filter0_d" x="34" y="190" width="140" height="140" filterUnits="userSpaceOnUse" color-interpolation-filters="sRGB">
<feFlood flood-opacity="0" result="BackgroundImageFix"/>
<feColorMatrix in="SourceAlpha" type="matrix" values="0 0 0 0 0 0 0 0 0 0 0 0 0 0 0 0 0 0 127 0" result="hardAlpha"/>
<feOffset/>
<feGaussianBlur stdDeviation="10"/>
<feColorMatrix type="matrix" values="0 0 0 0 0.1825 0 0 0 0 0.245767 0 0 0 0 0.304167 0 0 0 0.25 0"/>
<feBlend mode="normal" in2="BackgroundImageFix" result="effect1_dropShadow"/>
<feBlend mode="normal" in="SourceGraphic" in2="effect1_dropShadow" result="shape"/>
</filter>
<filter id="filter1_d" x="162" y="190" width="140" height="140" filterUnits="userSpaceOnUse" color-interpolation-filters="sRGB">
<feFlood flood-opacity="0" result="BackgroundImageFix"/>
<feColorMatrix in="SourceAlpha" type="matrix" values="0 0 0 0 0 0 0 0 0 0 0 0 0 0 0 0 0 0 127 0" result="hardAlpha"/>
<feOffset/>
<feGaussianBlur stdDeviation="10"/>
<feColorMatrix type="matrix" values="0 0 0 0 0.1825 0 0 0 0 0.245767 0 0 0 0 0.304167 0 0 0 0.25 0"/>
<feBlend mode="normal" in2="BackgroundImageFix" result="effect1_dropShadow"/>
<feBlend mode="normal" in="SourceGraphic" in2="effect1_dropShadow" result="shape"/>
</filter>
<filter id="filter2_d" x="290" y="190" width="140" height="140" filterUnits="userSpaceOnUse" color-interpolation-filters="sRGB">
<feFlood flood-opacity="0" result="BackgroundImageFix"/>
<feColorMatrix in="SourceAlpha" type="matrix" values="0 0 0 0 0 0 0 0 0 0 0 0 0 0 0 0 0 0 127 0" result="hardAlpha"/>
<feOffset/>
<feGaussianBlur stdDeviation="10"/>
<feColorMatrix type="matrix" values="0 0 0 0 0.1825 0 0 0 0 0.245767 0 0 0 0 0.304167 0 0 0 0.25 0"/>
<feBlend mode="normal" in2="BackgroundImageFix" result="effect1_dropShadow"/>
<feBlend mode="normal" in="SourceGraphic" in2="effect1_dropShadow" result="shape"/>
</filter>
<filter id="filter3_d" x="418" y="190" width="140" height="140" filterUnits="userSpaceOnUse" color-interpolation-filters="sRGB">
<feFlood flood-opacity="0" result="BackgroundImageFix"/>
<feColorMatrix in="SourceAlpha" type="matrix" values="0 0 0 0 0 0 0 0 0 0 0 0 0 0 0 0 0 0 127 0" result="hardAlpha"/>
<feOffset/>
<feGaussianBlur stdDeviation="10"/>
<feColorMatrix type="matrix" values="0 0 0 0 0.1825 0 0 0 0 0.245767 0 0 0 0 0.304167 0 0 0 0.25 0"/>
<feBlend mode="normal" in2="BackgroundImageFix" result="effect1_dropShadow"/>
<feBlend mode="normal" in="SourceGraphic" in2="effect1_dropShadow" result="shape"/>
</filter>
<linearGradient id="paint0_linear" x1="335.648" y1="234" x2="363.953" y2="254.442" gradientUnits="userSpaceOnUse">
<stop stop-color="#1B70C4"/>
<stop offset="1" stop-color="#2081E2" stop-opacity="0"/>
</linearGradient>
<linearGradient id="paint1_linear" x1="335.648" y1="234" x2="363.953" y2="254.442" gradientUnits="userSpaceOnUse">
<stop stop-color="#1B70C4"/>
<stop offset="1" stop-color="#2081E2" stop-opacity="0"/>
</linearGradient>
</defs>
</svg>
